<svg id="Capa_1" enable-background="new 0 0 503.34 503.34" height="512" viewBox="0 0 503.34 503.34" width="512" xmlns="http://www.w3.org/2000/svg"><g><path d="m276.241 428.34-79.143 30-1.819 7.276c-3.339 13.355-15.338 22.724-29.104 22.724v7.5h155.989z" fill="#e5f9ff"/><path d="m308.06 465.616-9.319-37.276-47.071-30-47.071 30-7.5 30h79.143l1.819 7.276c3.339 13.355 15.338 22.724 29.104 22.724l15 7.5 15-7.5c-13.766 0-25.766-9.369-29.105-22.724z" fill="#bdf0ff"/><path d="m440.17 428.34h30c16.5 0 30-13.5 30-30v-22.5l-60-90.847z" fill="#bdf0ff"/><path d="m3.17 375.84v22.5c0 16.5 13.5 30 30 30h407c16.5 0 30-13.5 30-30v-173.347z" fill="#e5f9ff"/><path d="m470.17 78.09h-30v266.903l30 30.847h30v-267.75c0-16.5-13.5-30-30-30z" fill="#2d4a7a"/><path d="m470.17 345.84-218.5-118.875 218.5-118.875c0-16.5-13.5-30-30-30h-407c-16.5 0-30 13.5-30 30v267.75h467z" fill="#415ba3"/><path d="m470.17 108.113-29.993-.023c-.001.006-188.507 118.875-188.507 118.875s188.502 118.872 188.5 118.875h29.999c.001 0-.002-237.722.001-237.727z" fill="#8de5ff"/><path d="m440.17 108.09h-406.912c-.024.012-.045 237.745-.088 237.75h406.99c.005 0-.032-237.745.01-237.75z" fill="#bdf0ff"/><path d="m399.17 503.34h-295c-4.143 0-7.5-3.358-7.5-7.5s3.357-7.5 7.5-7.5h295c4.143 0 7.5 3.358 7.5 7.5s-3.357 7.5-7.5 7.5z" fill="#bdf0ff"/><path d="m387.925 78.67c.001.002.002.003.003.004z" fill="#ffae6b"/><path d="m115.425 78.676c-.645 1.11-1.008 2.381-1.015 3.708v149.876c0 2.679 1.429 5.155 3.75 6.495l129.76 74.92c1.16.67 2.455.993 3.75.99l100.256-236.575z" fill="#ff9457"/><path d="m387.915 78.676-136.245-.586 107.265 175.82 26.245-15.156c2.32-1.34 3.75-3.816 3.75-6.495v-149.875c-.008-1.327-.371-2.598-1.015-3.708z" fill="#ff6145"/><path d="m358.935 95.41-107.265-17.32v236.59c1.295 0 2.59-.335 3.75-1.005l103.515-59.764v-34.641h-30l30-34.641z" fill="#ff7e4f"/><path d="m358.935 184.628-30 17.32-30 34.642h30l30-17.321z" fill="#e5f9ff"/><path d="m281.67 229.237v34.641l47.265-27.288v-34.642z" fill="#fff"/><path d="m385.182 75.929-129.762-74.924c-2.32-1.34-5.179-1.34-7.5 0l-64.88 37.454 18.502 79.262h118.758l67.625-39.051c-.648-1.119-1.584-2.072-2.743-2.741z" fill="#ff9457"/><path d="m183.04 38.459-64.883 37.471c-1.16.67-2.098 1.624-2.745 2.745l136.258 78.665 68.63-39.619z" fill="#ffae6b"/></g></svg>